<svg width="281" height="209" viewBox="0 0 281 209" fill="none" xmlns="http://www.w3.org/2000/svg">
<g filter="url(#filter0_dd_94_668)">
<mask id="mask0_94_668" style="mask-type:alpha" maskUnits="userSpaceOnUse" x="17" y="0" width="247" height="148">
<path d="M115.887 107.286H149.229V73.9438H115.887V107.286Z" fill="#F9E050"/>
<path d="M66.786 24.8429L100.128 24.8429V0.458496L66.786 0.458496V24.8429Z" fill="#F4F464"/>
<path d="M91.3365 49.3927H124.678V16.0508L91.3365 16.0508V49.3927ZM17.7021 49.3927L42.2524 49.3927V24.8424L17.7021 24.8424L17.7021 49.3927ZM66.7862 73.9098L91.3365 73.9098V49.3596L66.7862 49.3596V73.9098Z" fill="#F4F464"/>
<path d="M115.887 131.77H149.229V98.4277H115.887V131.77Z" fill="#F9B038"/>
<path d="M107.111 147.561H149.212V123.011H107.111V147.561Z" fill="#F6842D"/>
<path d="M42.2527 147.561H66.803V123.011H42.2527V147.561Z" fill="#F9E050"/>
<path d="M115.887 33.6341L149.229 33.6341V0.458008L115.887 0.458008V33.6341Z" fill="#F6842D"/>
<path d="M66.786 122.994H91.3363V98.4438H66.786V122.994Z" fill="#F4F464"/>
<path d="M140.287 58.1847L173.629 58.1847V24.8428L140.287 24.8428V58.1847Z" fill="#F4AC2B"/>
<path d="M140.288 82.6847H173.63V49.3428L140.288 49.3428V82.6847Z" fill="#F6842D"/>
<path d="M140.288 107.285H173.63V73.9434H140.288V107.285Z" fill="#F4AC2B"/>
<path d="M140.287 131.77H173.629V98.4277H140.287V131.77Z" fill="#F6842D"/>
<path d="M140.453 0.458483V24.8429L164.838 24.8429V123.011H140.287V147.561H206.092C215.979 147.561 224.538 146.433 231.737 144.161C238.937 141.921 244.842 137.973 249.487 132.333C254.131 126.693 257.615 119.063 259.871 109.442C262.127 99.854 263.238 87.6618 263.238 72.8321C263.238 57.8697 262.193 45.7272 260.086 36.4379C257.963 26.9828 254.645 19.6343 250.133 14.409C245.662 8.99234 239.577 5.14508 232.766 3.42774C225.716 1.43718 217.173 0.441895 207.17 0.441895L164.821 0.441895L140.453 0.458483ZM190.433 20.5798L206.308 20.5798C211.782 20.5798 216.526 21.2101 220.474 22.4708C224.599 23.6317 228.098 26.374 230.211 30.1013C232.766 33.9166 234.59 39.2745 235.718 46.1917C236.996 53.1089 237.626 62.2821 237.626 73.7279C237.626 85.1404 236.963 94.38 235.702 101.43C234.59 108.347 232.766 113.771 230.228 117.719C227.883 121.365 224.376 124.112 220.275 125.516C216.294 126.793 211.649 127.423 206.291 127.423H190.433V20.5798Z" fill="#F14D34"/>
<path d="M115.887 49.3931H140.437V24.8428L115.887 24.8428V49.3931Z" fill="#F9E050"/>
<path d="M91.3364 147.561H115.887V123.01H91.3364V147.561Z" fill="#F9B038"/>
<path d="M91.3365 24.8424L115.887 24.8424V0.458008L91.3365 0.458008V24.8424Z" fill="#F9E050"/>
</mask>
<g mask="url(#mask0_94_668)">
<g filter="url(#filter1_d_94_668)">
<path d="M115.887 107.286H149.229V73.9438H115.887V107.286Z" fill="#F9E050"/>
<path d="M66.786 24.8429L100.128 24.8429V0.458496L66.786 0.458496V24.8429Z" fill="#F4F464"/>
<path d="M91.3365 49.3927H124.678V16.0508L91.3365 16.0508V49.3927ZM17.7021 49.3927L42.2524 49.3927V24.8424L17.7021 24.8424L17.7021 49.3927ZM66.7862 73.9098L91.3365 73.9098V49.3596L66.7862 49.3596V73.9098Z" fill="#F4F464"/>
<path d="M115.887 131.77H149.229V98.4277H115.887V131.77Z" fill="#F9B038"/>
<path d="M107.111 147.561H149.212V123.011H107.111V147.561Z" fill="#F6842D"/>
<path d="M42.2527 147.561H66.803V123.011H42.2527V147.561Z" fill="#F9E050"/>
<path d="M115.887 33.6341L149.229 33.6341V0.458008L115.887 0.458008V33.6341Z" fill="#F6842D"/>
<path d="M66.786 122.994H91.3363V98.4438H66.786V122.994Z" fill="#F4F464"/>
<path d="M140.287 58.1847L173.629 58.1847V24.8428L140.287 24.8428V58.1847Z" fill="#F4AC2B"/>
<path d="M140.288 82.6847H173.63V49.3428L140.288 49.3428V82.6847Z" fill="#F6842D"/>
<path d="M140.288 107.285H173.63V73.9434H140.288V107.285Z" fill="#F4AC2B"/>
<path d="M140.287 131.77H173.629V98.4277H140.287V131.77Z" fill="#F6842D"/>
<path d="M140.453 0.458483V24.8429L164.838 24.8429V123.011H140.287V147.561H206.092C215.979 147.561 224.538 146.433 231.737 144.161C238.937 141.921 244.842 137.973 249.487 132.333C254.131 126.693 257.615 119.063 259.871 109.442C262.127 99.854 263.238 87.6618 263.238 72.8321C263.238 57.8697 262.193 45.7272 260.086 36.4379C257.963 26.9828 254.645 19.6343 250.133 14.409C245.662 8.99234 239.577 5.14508 232.766 3.42774C225.716 1.43718 217.173 0.441895 207.17 0.441895L164.821 0.441895L140.453 0.458483ZM190.433 20.5798L206.308 20.5798C211.782 20.5798 216.526 21.2101 220.474 22.4708C224.599 23.6317 228.098 26.374 230.211 30.1013C232.766 33.9166 234.59 39.2745 235.718 46.1917C236.996 53.1089 237.626 62.2821 237.626 73.7279C237.626 85.1404 236.963 94.38 235.702 101.43C234.59 108.347 232.766 113.771 230.228 117.719C227.883 121.365 224.376 124.112 220.275 125.516C216.294 126.793 211.649 127.423 206.291 127.423H190.433V20.5798Z" fill="#F14D34"/>
<path d="M115.887 49.3931H140.437V24.8428L115.887 24.8428V49.3931Z" fill="#F9E050"/>
<path d="M91.3364 147.561H115.887V123.01H91.3364V147.561Z" fill="#F9B038"/>
<path d="M91.3365 24.8424L115.887 24.8424V0.458008L91.3365 0.458008V24.8424Z" fill="#F9E050"/>
</g>
<rect x="17.7021" y="0.441406" width="245.381" height="147.229" fill="url(#paint0_linear_94_668)"/>
</g>
</g>
<defs>
<filter id="filter0_dd_94_668" x="0.632139" y="0.441406" width="279.676" height="208.288" filterUnits="userSpaceOnUse" color-interpolation-filters="sRGB">
<feFlood flood-opacity="0" result="BackgroundImageFix"/>
<feColorMatrix in="SourceAlpha" type="matrix" values="0 0 0 0 0 0 0 0 0 0 0 0 0 0 0 0 0 0 127 0" result="hardAlpha"/>
<feOffset dy="44.0975"/>
<feGaussianBlur stdDeviation="8.535"/>
<feColorMatrix type="matrix" values="0 0 0 0 0 0 0 0 0 0.0495833 0 0 0 0 0.145833 0 0 0 0.25 0"/>
<feBlend mode="normal" in2="BackgroundImageFix" result="effect1_dropShadow_94_668"/>
<feColorMatrix in="SourceAlpha" type="matrix" values="0 0 0 0 0 0 0 0 0 0 0 0 0 0 0 0 0 0 127 0" result="hardAlpha"/>
<feOffset dy="4.97875"/>
<feColorMatrix type="matrix" values="0 0 0 0 0.2375 0 0 0 0 0.136562 0 0 0 0 0.136562 0 0 0 1 0"/>
<feBlend mode="normal" in2="effect1_dropShadow_94_668" result="effect2_dropShadow_94_668"/>
<feBlend mode="normal" in="SourceGraphic" in2="effect2_dropShadow_94_668" result="shape"/>
</filter>
<filter id="filter1_d_94_668" x="0.632139" y="0.441895" width="279.676" height="208.287" filterUnits="userSpaceOnUse" color-interpolation-filters="sRGB">
<feFlood flood-opacity="0" result="BackgroundImageFix"/>
<feColorMatrix in="SourceAlpha" type="matrix" values="0 0 0 0 0 0 0 0 0 0 0 0 0 0 0 0 0 0 127 0" result="hardAlpha"/>
<feOffset dy="44.0975"/>
<feGaussianBlur stdDeviation="8.535"/>
<feColorMatrix type="matrix" values="0 0 0 0 0 0 0 0 0 0.0495833 0 0 0 0 0.145833 0 0 0 0.25 0"/>
<feBlend mode="normal" in2="BackgroundImageFix" result="effect1_dropShadow_94_668"/>
<feBlend mode="normal" in="SourceGraphic" in2="effect1_dropShadow_94_668" result="shape"/>
</filter>
<linearGradient id="paint0_linear_94_668" x1="121.9" y1="-70.328" x2="178.8" y2="106.418" gradientUnits="userSpaceOnUse">
<stop stop-color="white"/>
<stop offset="1" stop-color="white" stop-opacity="0"/>
</linearGradient>
</defs>
</svg>
