<svg width="924" height="1054" viewBox="0 0 924 1054" fill="none" xmlns="http://www.w3.org/2000/svg">
<path fill-rule="evenodd" clip-rule="evenodd" d="M615.593 157.298C640.53 168.568 665.83 180.003 691.823 196.178C692.301 196.48 692.816 196.804 693.365 197.15C730.185 220.355 923.466 342.162 923.466 607.17C923.466 876.131 710.898 1053.73 465.834 1053.73C220.769 1053.73 0.0916748 860.913 0.0916748 599.077C0.0916748 337.241 204.721 215.442 242.357 196.178C253.375 190.168 263.671 184.908 273.705 179.783C304.394 164.107 332.621 149.689 371.486 118.892C395.815 98.6019 417.289 70.2183 424.371 0.171143C460.979 43.9435 504.726 94.6693 536.252 115.985C562.549 133.324 588.862 145.217 615.593 157.298ZM200.438 757.296C201.466 678.414 275.654 604.321 369.259 603.01C438.644 602.411 495.576 642.568 542.887 675.939C576.692 699.784 605.585 720.164 630.6 719.736C656.213 719.219 693.718 693.708 730.742 668.524C767.192 643.73 803.177 619.253 826.891 619.253C877.72 619.253 891.941 672.031 891.941 703.492C891.941 734.954 881.775 791.778 857.674 827.286C833.573 862.794 817.696 876.017 789.54 873.965C772.541 872.562 747.649 847.306 721.175 820.446C690.637 789.462 657.996 756.343 632.941 755.244C606.799 754.339 567.273 778.085 522.611 804.917C465.997 838.929 401.132 877.898 344.815 877.898C283.82 877.898 265.545 868.722 245.156 855.556C214.659 834.24 199.467 801.752 200.438 757.125V757.296ZM654.929 835.437C642.821 827.286 625.517 826.26 609.24 826.26H609.297C607.404 826.26 605.608 826.246 603.883 826.233C590.773 826.132 581.82 826.063 566.578 832.359C549.658 839.348 531.914 855.113 520.462 865.287L519.804 865.872C508.382 876.017 506.44 884.395 512.551 892.261C518.633 900.089 524.715 895.101 541.834 881.061L542.077 880.862C543.584 879.626 545.044 878.406 546.477 877.208L546.484 877.202L546.486 877.201C561.52 864.635 573.679 854.473 606.156 854.473C640.958 854.473 647.511 866.851 654.462 879.98L654.721 880.469L654.929 880.862L655 880.995C662.075 894.326 663.119 896.294 670.178 892.261C672.165 891.616 673.986 890.544 675.513 889.12C677.04 887.697 678.235 885.956 679.014 884.021C679.792 882.086 680.136 880.004 680.021 877.921C679.905 875.839 679.333 873.808 678.345 871.971L678.295 871.846C674.23 861.676 666.987 843.554 654.929 835.437ZM556.355 971.427C491.248 971.427 460.751 958.204 440.419 941.961L440.591 941.847C440.156 941.56 439.805 941.315 439.505 941.105L439.502 941.103C437.712 939.852 437.712 939.852 432.481 939.852C426.702 940.264 421.276 942.779 417.232 946.919C415.769 948.284 414.603 949.935 413.806 951.768C413.008 953.601 412.597 955.579 412.597 957.577C412.597 959.576 413.008 961.553 413.806 963.387C414.603 965.22 415.769 966.87 417.232 968.235C461.95 1008.87 536.195 1005.8 591.136 1000.72C629.867 996.176 666.698 981.466 697.877 958.09C700.23 956.001 701.886 953.242 702.621 950.185C703.356 947.128 703.136 943.92 701.989 940.992C700.961 936.888 696.849 930.847 687.711 937.914C667.208 953.132 621.462 971.427 556.355 971.427Z" fill="url(#paint0_linear_94_303)" fill-opacity="0.192"/>
<defs>
<linearGradient id="paint0_linear_94_303" x1="2299.89" y1="-616.837" x2="110.126" y2="-254.628" gradientUnits="userSpaceOnUse">
<stop/>
<stop offset="1" stop-color="white" stop-opacity="0"/>
</linearGradient>
</defs>
</svg>
