<svg width="1060" height="839" viewBox="0 0 1060 839" fill="none" xmlns="http://www.w3.org/2000/svg">
<g clip-path="url(#clip0_94_301)">
<path fill-rule="evenodd" clip-rule="evenodd" d="M635.24 -100.388C662.179 -95.578 689.511 -90.6975 718.676 -81.3918C719.214 -81.2161 719.792 -81.028 720.41 -80.8271C761.796 -67.362 979.048 3.32202 1044.04 260.236C1110.01 520.982 947.489 745.289 709.909 805.393C472.33 865.496 211.103 732.693 146.886 478.854C82.6686 225.015 251.176 56.7491 282.939 28.8425C292.145 20.3139 300.838 12.6899 309.307 5.26083C335.215 -17.4633 359.043 -38.3635 389.168 -77.7522C407.778 -103.39 421.635 -136.173 411.321 -205.818C457.547 -172.361 512.399 -133.913 548.189 -120.98C577.936 -110.621 606.362 -105.545 635.24 -100.388ZM379.917 583.104C361.568 506.38 415.317 416.354 505.742 392.126C572.862 374.528 637.903 399.496 691.954 420.245C730.574 435.07 763.583 447.741 787.729 441.191C812.433 434.408 842.536 400.478 872.253 366.983C901.509 334.007 930.392 301.452 953.381 295.636C1002.66 283.17 1029.39 330.848 1037.1 361.348C1044.82 391.849 1048.9 449.431 1034.25 489.765C1019.59 530.1 1007.44 546.813 979.641 551.729C962.817 554.538 932.491 536.158 900.238 516.611C863.034 494.063 823.267 469.961 798.708 475.041C773.142 480.575 740.647 513.29 703.93 550.255C657.387 597.113 604.06 650.801 549.463 664.613C490.331 679.573 470.364 675.159 447.368 667.396C412.575 654.21 389.879 626.441 379.875 582.938L379.917 583.104ZM839.692 547.391C825.955 542.459 808.927 545.709 793.148 549.701L793.203 549.687C791.368 550.151 789.623 550.578 787.947 550.988C775.213 554.105 766.517 556.234 753.284 566.076C738.595 577.002 725.259 596.637 716.653 609.309L716.158 610.037C707.573 622.674 707.745 631.273 715.599 637.399C723.415 643.497 728.088 637.169 741.241 619.36L741.428 619.107C742.585 617.54 743.701 615.999 744.797 614.485L744.802 614.478L744.803 614.477C756.297 598.607 765.592 585.773 797.077 577.808C830.816 569.273 840.205 579.665 850.163 590.689L850.534 591.099L850.833 591.429L850.934 591.541C861.062 602.729 862.558 604.381 868.411 598.74C870.18 597.628 871.683 596.142 872.813 594.387C873.944 592.632 874.676 590.652 874.956 588.585C875.237 586.518 875.06 584.415 874.437 582.425C873.814 580.434 872.761 578.605 871.353 577.067L871.274 576.958C864.839 568.096 853.372 552.303 839.692 547.391ZM777.481 703.404C714.363 719.372 681.554 714.033 657.86 703.272L657.998 703.119C657.506 702.948 657.106 702.797 656.763 702.667L656.76 702.665C654.717 701.891 654.717 701.891 649.646 703.174C644.145 704.991 639.501 708.76 636.597 713.766C635.513 715.448 634.787 717.334 634.464 719.307C634.141 721.28 634.227 723.298 634.717 725.235C635.207 727.173 636.091 728.989 637.314 730.571C638.536 732.153 640.072 733.466 641.825 734.431C695.144 762.86 766.366 741.667 818.385 723.275C854.817 709.369 886.916 686.075 911.41 655.766C913.179 653.163 914.107 650.082 914.07 646.938C914.033 643.794 913.032 640.738 911.203 638.181C909.199 634.455 903.731 629.606 896.606 638.699C880.461 658.48 840.6 687.436 777.481 703.404Z" fill="url(#paint0_linear_94_301)" fill-opacity="0.192"/>
</g>
<defs>
<linearGradient id="paint0_linear_94_301" x1="2078.24" y1="-1263.97" x2="44.1822" y2="-375.764" gradientUnits="userSpaceOnUse">
<stop/>
<stop offset="1" stop-color="white" stop-opacity="0"/>
</linearGradient>
<clipPath id="clip0_94_301">
<rect width="923.603" height="1053.56" fill="white" transform="translate(0 -101.76) rotate(-14.197)"/>
</clipPath>
</defs>
</svg>
